<svg width="332" height="27" viewBox="0 0 332 27" fill="none" xmlns="http://www.w3.org/2000/svg">
<g clip-path="url(#clip0_33_25)">
<g clip-path="url(#clip1_33_25)">
<path d="M22.4607 21.0114H26.329L19.578 1.9485H16.7325L9.99999 21.0114H13.0129L14.9657 15.5436H20.6009L22.4607 21.0114ZM19.7267 12.9957H15.8584C16.5279 10.8383 17.1602 8.69957 17.7554 6.48641C18.3505 8.68097 19.0386 10.8383 19.7267 12.9957ZM28.0215 21.0114H31.1831V1H27.7239C27.7611 1.13019 28.0215 2.33906 28.0215 2.39485V21.0114ZM40.5565 18.6495H39.3662C38.3805 18.6495 37.2275 18.5751 37.2275 17.8126C37.2275 17.1431 37.8226 16.6409 38.4549 16.6409C41.1144 16.6409 43.4578 14.8741 43.4578 12.1402C43.4578 11.2475 43.1602 10.5222 42.6209 9.81545C42.8069 9.87124 43.03 9.94564 43.216 9.94564H45.4292L46.0057 7.78827C44.4993 7.91845 42.8998 8.06724 41.3748 8.06724C40.4263 8.06724 39.6824 7.67668 38.5851 7.67668C35.9628 7.67668 33.6566 9.46209 33.6566 12.1588C33.6566 13.8512 34.5493 15.1903 35.9814 15.99C34.9957 17.6638 34.01 18.0544 34.01 18.5379C34.01 19.3562 34.6051 20.1559 35.2003 20.3047V20.4163C33.9728 20.9556 32.9127 22.2203 32.9127 23.7453C32.9127 26.4235 36.0372 27 38.1202 27C41.3376 27 45.2246 25.3634 45.2246 21.6066C45.2246 18.8355 42.7325 18.6495 40.5565 18.6495ZM38.5665 14.8183C37.525 14.8183 36.9113 13.6652 36.9113 12.2332C36.9113 10.8011 37.525 9.62947 38.5665 9.62947C39.608 9.62947 40.2217 10.8011 40.2217 12.2332C40.2217 13.6652 39.608 14.8183 38.5665 14.8183ZM37.3576 21.0114H39.7382C40.6681 21.0114 42.2489 21.0672 42.2489 22.3133C42.2489 24.3405 40.1287 24.7682 38.5107 24.7682C37.525 24.7682 36.093 24.3777 36.093 23.1502C36.093 22.3133 36.6509 21.402 37.3576 21.0114ZM58.6152 14.5393C58.6152 10.7825 56.2346 7.73247 52.3104 7.73247C48.4235 7.73247 46.0057 10.8011 46.0057 14.5393C46.0057 18.2775 48.3677 21.3276 52.3104 21.3276C56.2346 21.3276 58.6152 18.2775 58.6152 14.5393ZM55.1745 14.5579C55.1745 16.4549 54.7468 19.2446 52.3104 19.2446C49.9299 19.2446 49.4463 16.3805 49.4463 14.5579C49.4463 12.7353 49.9299 9.87124 52.3104 9.87124C54.7468 9.87124 55.1745 12.6609 55.1745 14.5579ZM67.9328 10.9127L68.4535 7.80687C66.7053 7.80687 65.0129 9.09013 64.1574 10.5408C64.1202 9.66667 63.897 8.62518 63.525 7.80687L60.2146 8.06724C60.8469 8.90415 61.0515 10.578 61.0515 11.5637V21.0114H64.176V13.3119C65.0873 12.0286 66.1659 10.9127 67.8212 10.9127H67.9328ZM73.6237 3.36195C73.6237 2.26466 72.7496 1.39056 71.6524 1.39056C70.5551 1.39056 69.6438 2.26466 69.6438 3.36195C69.6438 4.45923 70.5551 5.37053 71.6524 5.37053C72.7496 5.37053 73.6237 4.45923 73.6237 3.36195ZM70.0715 21.0114H73.196V8.06724H69.774C69.8111 8.19742 70.0715 9.42489 70.0715 9.48069V21.0114ZM83.4249 20.7325L83.0529 18.7797C82.5136 18.9099 81.937 19.0401 81.3605 19.0401C80.319 19.0401 80.2632 17.887 80.2632 17.2918V10.1316H82.7926L83.4249 8.06724H80.2632C80.2632 6.82117 80.505 5.51931 80.784 4.29185H78.5336C78.1431 6.09585 77.1016 8.36481 74.9628 8.4206V10.1316H77.1016V17.9986C77.1016 20.2861 78.1059 21.2718 80.3562 21.2718C81.2861 21.2718 82.5136 21.0114 83.4249 20.7325ZM100.237 21.0114H103.362V12.196C103.362 9.62947 102.581 7.73247 99.7167 7.73247C98.0615 7.73247 96.6667 8.4578 95.495 9.62947C94.937 8.29041 93.7096 7.73247 92.2775 7.73247C90.6037 7.73247 89.4878 8.4206 88.2976 9.46209C88.2046 8.90415 88.0744 8.30901 87.8512 7.78827L84.5594 8.17883C85.1917 8.94134 85.3777 10.8383 85.3777 11.7496V21.0114H88.5021V11.6195C89.1159 10.9313 90.2132 10.1874 91.1245 10.1874C92.4635 10.1874 92.7611 11.1731 92.7611 12.289V21.0114H95.9227V11.5823C96.5179 10.9871 97.671 10.1874 98.5265 10.1874C99.9585 10.1874 100.237 11.0987 100.237 12.3634V21.0114ZM118.278 14.5393C118.278 10.7825 115.916 7.73247 111.991 7.73247C108.104 7.73247 105.687 10.8011 105.687 14.5393C105.687 18.2775 108.049 21.3276 111.991 21.3276C115.916 21.3276 118.278 18.2775 118.278 14.5393ZM114.856 14.5579C114.856 16.4549 114.428 19.2446 111.991 19.2446C109.611 19.2446 109.127 16.3805 109.127 14.5579C109.127 12.7353 109.611 9.87124 111.991 9.87124C114.428 9.87124 114.856 12.6609 114.856 14.5579ZM129.195 16.9757C129.195 12.4936 123.485 13.628 123.485 11.2289C123.485 10.2432 124.396 9.85265 125.27 9.85265C126.144 9.85265 127.13 10.1874 127.837 10.7268L128.934 8.55079C127.837 7.99285 126.312 7.73247 125.103 7.73247C122.667 7.73247 120.1 9.03434 120.1 11.8054C120.1 16.0644 125.81 14.8741 125.81 17.4964C125.81 18.6495 124.898 19.1702 123.857 19.1702C122.797 19.1702 121.793 18.6495 120.918 18.1288L119.803 20.2675C121.011 20.9371 122.741 21.3834 124.117 21.3834C126.702 21.3834 129.195 19.7654 129.195 16.9757ZM146.398 21.2532L149.559 20.9371C149.057 20.0258 148.908 18.3147 148.908 17.3104V1.0186H145.393L145.784 2.43205V7.00715C145.784 7.80687 145.784 7.89986 145.803 8.58798C145.096 8.03004 143.831 7.76967 142.92 7.76967C138.903 7.76967 136.876 10.8941 136.876 14.6323C136.876 17.9614 138.717 21.3276 142.418 21.3276C143.664 21.3276 145.282 20.7511 146.007 19.691C146.119 20.2675 146.23 20.7511 146.398 21.2532ZM145.784 13.4049V17.6638C145.263 18.4449 144.24 19.0029 143.31 19.0029C140.986 19.0029 140.279 16.3805 140.279 14.5021C140.279 12.7167 140.911 9.98283 143.199 9.98283C145.189 9.98283 145.784 11.6938 145.784 13.4049ZM162.801 13.3677C162.801 9.98283 160.886 7.71388 157.426 7.71388C153.521 7.71388 151.345 10.9871 151.345 14.6323C151.345 18.6495 153.8 21.309 157.854 21.309C159.286 21.309 161.332 20.8813 162.504 19.9142L161.165 17.8312C160.383 18.6123 159.119 19.226 158.021 19.226C155.734 19.226 154.655 16.9013 154.655 14.9299H161.481C162.522 14.9299 162.801 14.279 162.801 13.3677ZM159.547 12.289C159.547 12.6237 159.509 12.8655 159.119 12.8655H154.73C154.823 11.5079 155.994 9.85265 157.445 9.85265C158.877 9.85265 159.547 10.9685 159.547 12.289ZM183.817 7.65808C183.817 3.36195 180.674 1.9485 176.898 1.9485H170.854C170.91 2.07868 171.245 3.49213 171.245 3.54793V21.0114H174.815V13.3677H176.954C180.488 13.3677 183.817 11.6381 183.817 7.65808ZM180.023 7.65808C180.023 9.49928 178.944 10.8383 177.029 10.8383H174.834V4.53362H177.047C179.037 4.53362 180.023 5.76109 180.023 7.65808ZM193.134 10.9127L193.655 7.80687C191.926 7.80687 190.233 9.09013 189.359 10.5408C189.34 9.66667 189.099 8.62518 188.745 7.80687L185.435 8.06724C186.067 8.90415 186.272 10.578 186.272 11.5637V21.0114H189.396V13.3119C190.308 12.0286 191.368 10.9127 193.041 10.9127H193.134ZM206.599 14.5393C206.599 10.7825 204.237 7.73247 200.295 7.73247C196.426 7.73247 194.009 10.8011 194.009 14.5393C194.009 18.2775 196.371 21.3276 200.295 21.3276C204.237 21.3276 206.599 18.2775 206.599 14.5393ZM203.159 14.5579C203.159 16.4549 202.75 19.2446 200.295 19.2446C197.933 19.2446 197.431 16.3805 197.431 14.5579C197.431 12.7353 197.933 9.87124 200.295 9.87124C202.75 9.87124 203.159 12.6609 203.159 14.5579ZM214.931 18.6495H213.741C212.755 18.6495 211.602 18.5751 211.602 17.8126C211.602 17.1431 212.197 16.6409 212.83 16.6409C215.489 16.6409 217.833 14.8741 217.833 12.1402C217.833 11.2475 217.535 10.5222 216.996 9.81545C217.182 9.87124 217.405 9.94564 217.591 9.94564H219.804L220.381 7.78827C218.874 7.91845 217.275 8.06724 215.75 8.06724C214.801 8.06724 214.057 7.67668 212.96 7.67668C210.319 7.67668 208.031 9.46209 208.031 12.1588C208.031 13.8512 208.924 15.1903 210.356 15.99C209.371 17.6638 208.366 18.0544 208.366 18.5379C208.366 19.3562 208.98 20.1559 209.575 20.3047V20.4163C208.348 20.9556 207.288 22.2203 207.288 23.7453C207.288 26.4235 210.412 27 212.495 27C215.712 27 219.599 25.3634 219.599 21.6066C219.599 18.8355 217.089 18.6495 214.931 18.6495ZM212.923 14.8183C211.881 14.8183 211.286 13.6652 211.286 12.2332C211.286 10.8011 211.881 9.62947 212.923 9.62947C213.964 9.62947 214.597 10.8011 214.597 12.2332C214.597 13.6652 213.964 14.8183 212.923 14.8183ZM211.732 21.0114H214.094C215.043 21.0114 216.624 21.0672 216.624 22.3133C216.624 24.3405 214.485 24.7682 212.886 24.7682C211.881 24.7682 210.449 24.3777 210.449 23.1502C210.449 22.3133 211.026 21.402 211.732 21.0114ZM228.34 10.9127L228.861 7.80687C227.113 7.80687 225.421 9.09013 224.565 10.5408C224.547 9.66667 224.305 8.62518 223.951 7.80687L220.641 8.06724C221.255 8.90415 221.478 10.578 221.478 11.5637V21.0114H224.602V13.3119C225.514 12.0286 226.574 10.9127 228.247 10.9127H228.34ZM241.824 20.5279L241.285 18.6123C240.913 18.7239 240.373 18.9285 239.983 18.9285C239.351 18.9285 239.351 18.0916 239.351 17.6266V11.9728C239.351 9.16452 237.77 7.76967 235.017 7.76967C233.139 7.76967 231.316 8.30901 229.754 9.3691L231.019 11.4335C231.93 10.7268 233.157 9.92704 234.366 9.92704C235.668 9.92704 236.226 10.3734 236.226 11.7496V13.4421C233.232 13.4421 229.177 14.186 229.177 17.9614C229.177 20.1001 230.814 21.309 232.841 21.309C234.459 21.309 235.798 20.8255 236.747 19.4864C236.989 20.4907 237.751 21.216 238.811 21.216C239.797 21.216 240.894 20.7883 241.824 20.5279ZM236.226 15.5808V16.176C236.226 17.4406 235.371 18.9099 233.938 18.9099C233.213 18.9099 232.432 18.4635 232.432 17.6638C232.432 15.711 234.775 15.5808 236.226 15.5808ZM258.079 21.0114H261.203V12.196C261.203 9.62947 260.422 7.73247 257.558 7.73247C255.884 7.73247 254.508 8.4578 253.336 9.62947C252.76 8.29041 251.551 7.73247 250.119 7.73247C248.445 7.73247 247.329 8.4206 246.12 9.46209C246.046 8.90415 245.916 8.30901 245.692 7.78827L242.401 8.17883C243.033 8.94134 243.219 10.8383 243.219 11.7496V21.0114H246.343V11.6195C246.957 10.9313 248.054 10.1874 248.966 10.1874C250.286 10.1874 250.602 11.1731 250.602 12.289V21.0114H253.764V11.5823C254.359 10.9871 255.494 10.1874 256.368 10.1874C257.8 10.1874 258.079 11.0987 258.079 12.3634V21.0114ZM276.286 20.5279L275.728 18.6123C275.375 18.7239 274.817 18.9285 274.426 18.9285C273.813 18.9285 273.813 18.0916 273.813 17.6266V11.9728C273.813 9.16452 272.213 7.76967 269.461 7.76967C267.582 7.76967 265.76 8.30901 264.197 9.3691L265.481 11.4335C266.392 10.7268 267.601 9.92704 268.81 9.92704C270.112 9.92704 270.688 10.3734 270.688 11.7496V13.4421C267.694 13.4421 263.621 14.186 263.621 17.9614C263.621 20.1001 265.258 21.309 267.303 21.309C268.903 21.309 270.242 20.8255 271.209 19.4864C271.432 20.4907 272.195 21.216 273.255 21.216C274.24 21.216 275.338 20.7883 276.286 20.5279ZM270.688 15.5808V16.176C270.688 17.4406 269.814 18.9099 268.382 18.9099C267.657 18.9099 266.876 18.4635 266.876 17.6638C266.876 15.711 269.219 15.5808 270.688 15.5808ZM287.222 20.1001L285.883 17.8684C285.083 18.5379 284.302 19.133 283.186 19.133C280.657 19.133 279.82 16.6223 279.82 14.4835C279.82 12.6795 280.545 9.94564 282.795 9.94564C283.874 9.94564 284.618 10.3362 285.436 10.9685L286.999 8.97854C285.957 8.23462 284.358 7.73247 283.074 7.73247C279.02 7.73247 276.379 10.5036 276.379 14.5393C276.379 18.5193 278.592 21.3276 282.702 21.3276C284.525 21.3276 285.622 20.9185 287.222 20.1001ZM293.21 3.36195C293.21 2.26466 292.318 1.39056 291.22 1.39056C290.123 1.39056 289.212 2.26466 289.212 3.36195C289.212 4.45923 290.123 5.37053 291.22 5.37053C292.318 5.37053 293.21 4.45923 293.21 3.36195ZM289.639 21.0114H292.764V8.06724H289.342C289.379 8.19742 289.639 9.42489 289.639 9.48069V21.0114ZM302.881 5.6495L306.824 1.35336H303.049L300.203 5.6495H302.881ZM307.754 14.5393C307.754 10.7825 305.392 7.73247 301.449 7.73247C297.581 7.73247 295.163 10.8011 295.163 14.5393C295.163 18.2775 297.525 21.3276 301.449 21.3276C305.392 21.3276 307.754 18.2775 307.754 14.5393ZM304.313 14.5579C304.313 16.4549 303.904 19.2446 301.449 19.2446C299.087 19.2446 298.585 16.3805 298.585 14.5579C298.585 12.7353 299.087 9.87124 301.449 9.87124C303.904 9.87124 304.313 12.6609 304.313 14.5579ZM317.946 21.0114H321.089V12.2704C321.089 9.55508 320.233 7.71388 317.239 7.71388C315.807 7.71388 314.319 8.51359 313.278 9.46209C313.203 8.90415 313.073 8.30901 312.831 7.78827L309.558 8.17883C310.172 8.94134 310.358 10.8383 310.358 11.7496V21.0114H313.482V11.6195C314.04 11.0243 315.509 10.1874 316.29 10.1874C317.815 10.1874 317.946 11.3777 317.946 12.5866V21.0114Z" fill="black"/>
</g>
</g>
<defs>
<clipPath id="clip0_33_25">
<rect width="330.345" height="26" fill="white" transform="translate(0.827454 0.5)"/>
</clipPath>
<clipPath id="clip1_33_25">
<rect width="311.089" height="26" fill="white" transform="translate(10 1)"/>
</clipPath>
</defs>
</svg>
